<svg width="12" height="18" viewBox="0 0 12 18" fill="none" xmlns="http://www.w3.org/2000/svg">
<path d="M1.99984 15.6667C1.80206 15.6667 1.60872 15.7253 1.44427 15.8352C1.27982 15.9451 1.15165 16.1013 1.07596 16.284C1.00027 16.4667 0.980467 16.6678 1.01905 16.8618C1.05764 17.0557 1.15288 17.2339 1.29273 17.3738C1.43258 17.5136 1.61077 17.6089 1.80475 17.6475C1.99873 17.686 2.19979 17.6662 2.38252 17.5905C2.56525 17.5149 2.72143 17.3867 2.83131 17.2222C2.94119 17.0578 2.99984 16.8644 2.99984 16.6667C3.00017 16.5353 2.97453 16.4051 2.92439 16.2836C2.87425 16.1621 2.8006 16.0517 2.70768 15.9588C2.61476 15.8659 2.50438 15.7923 2.38291 15.7421C2.26144 15.692 2.13125 15.6663 1.99984 15.6667ZM1.99984 11.6667C1.80206 11.6667 1.60872 11.7253 1.44427 11.8352C1.27982 11.9451 1.15165 12.1013 1.07596 12.284C1.00027 12.4667 0.980467 12.6678 1.01905 12.8618C1.05764 13.0557 1.15288 13.2339 1.29273 13.3738C1.43258 13.5136 1.61077 13.6089 1.80475 13.6475C1.99873 13.686 2.19979 13.6662 2.38252 13.5905C2.56525 13.5149 2.72143 13.3867 2.83131 13.2222C2.94119 13.0578 2.99984 12.8644 2.99984 12.6667C3.00017 12.5353 2.97453 12.4051 2.92439 12.2836C2.87425 12.1621 2.8006 12.0517 2.70768 11.9588C2.61476 11.8659 2.50438 11.7923 2.38291 11.7421C2.26144 11.692 2.13125 11.6663 1.99984 11.6667ZM1.99984 7.66667C1.80206 7.66667 1.60872 7.72532 1.44427 7.8352C1.27982 7.94508 1.15165 8.10126 1.07596 8.28398C1.00027 8.46671 0.980467 8.66778 1.01905 8.86176C1.05764 9.05574 1.15288 9.23392 1.29273 9.37377C1.43258 9.51363 1.61077 9.60887 1.80475 9.64745C1.99873 9.68604 2.19979 9.66623 2.38252 9.59055C2.56525 9.51486 2.72143 9.38669 2.83131 9.22224C2.94119 9.05779 2.99984 8.86445 2.99984 8.66667C3.00017 8.53525 2.97453 8.40507 2.92439 8.28359C2.87425 8.16212 2.8006 8.05175 2.70768 7.95883C2.61476 7.8659 2.50438 7.79225 2.38291 7.74212C2.26144 7.69198 2.13125 7.66634 1.99984 7.66667ZM8.6665 2.66667C8.6665 1.95942 8.38555 1.28115 7.88546 0.781049C7.38536 0.280952 6.70708 0 5.99984 0C5.29259 0 4.61432 0.280952 4.11422 0.781049C3.61412 1.28115 3.33317 1.95942 3.33317 2.66667C2.62593 2.66667 1.94765 2.94762 1.44755 3.44772C0.947455 3.94781 0.666504 4.62609 0.666504 5.33333H11.3332C11.3332 4.62609 11.0522 3.94781 10.5521 3.44772C10.052 2.94762 9.37375 2.66667 8.6665 2.66667ZM5.99984 3.66667C5.80206 3.66667 5.60872 3.60802 5.44427 3.49814C5.27982 3.38825 5.15165 3.23208 5.07596 3.04935C5.00027 2.86662 4.98047 2.66556 5.01905 2.47158C5.05764 2.2776 5.15288 2.09941 5.29273 1.95956C5.43258 1.81971 5.61077 1.72447 5.80475 1.68588C5.99873 1.6473 6.19979 1.6671 6.38252 1.74279C6.56525 1.81847 6.72143 1.94665 6.83131 2.1111C6.94119 2.27555 6.99984 2.46889 6.99984 2.66667C7.00017 2.79808 6.97453 2.92827 6.92439 3.04974C6.87425 3.17121 6.8006 3.28158 6.70768 3.37451C6.61475 3.46743 6.50438 3.54108 6.38291 3.59122C6.26144 3.64136 6.13125 3.667 5.99984 3.66667Z" fill="#213F7D"/>
</svg>
